<svg width="48" height="48" viewBox="0 0 543 551" fill="none" xmlns="http://www.w3.org/2000/svg">
<path d="M280.753 2.1071L2.10087 226.109C0.831 227.13 0.307198 228.819 0.776632 230.379L96.087 547.152C96.5956 548.843 98.1522 550 99.9174 550H283.374H461.067C462.913 550 464.518 548.738 464.954 546.945L541.941 230.149C542.292 228.704 541.812 227.183 540.695 226.2L285.9 2.22041C284.44 0.936835 282.268 0.889029 280.753 2.1071Z" fill="#FFBF00" stroke="#C5C5C5"/>
<path d="M345.792 352.939C345.792 406.51 312.422 449.938 271.257 449.938C230.092 449.938 196.721 406.51 196.721 352.939C196.721 299.368 230.092 255.94 271.257 255.94C312.422 255.94 345.792 299.368 345.792 352.939Z" fill="black"/>
<path d="M153.926 396.051C153.523 393.615 155.403 391.398 157.873 391.398H384.64C387.11 391.398 388.99 393.615 388.587 396.051L363.666 546.653C363.347 548.584 361.677 550 359.72 550H182.793C180.836 550 179.166 548.584 178.847 546.653L153.926 396.051Z" fill="#C4C4C4"/>
</svg>
