<svg width="56" height="56" viewBox="0 0 56 56" fill="none" xmlns="http://www.w3.org/2000/svg">
<path d="M28.5135 46.317C28.0935 46.737 27.3469 46.807 26.8569 46.317C26.4369 45.897 26.3669 45.1503 26.8569 44.6603L34.7669 36.7503L31.4769 33.4603L23.5669 41.3703C23.1235 41.837 22.3769 41.8137 21.9102 41.3703C21.4202 40.8803 21.4902 40.1337 21.9102 39.7137L29.8202 31.8037L26.5302 28.5137L18.6202 36.4237C18.2002 36.8437 17.4535 36.9137 16.9635 36.4237C16.5202 35.9803 16.5202 35.2337 16.9635 34.767L24.8735 26.857L21.5602 23.567L13.6502 31.477C13.2302 31.897 12.4835 31.967 11.9935 31.477C11.5502 31.0103 11.5502 30.287 11.9935 29.8203L22.2135 19.6003L26.5769 23.9403C28.7935 26.157 32.6202 26.1337 34.8369 23.9403C37.1236 21.6537 37.1236 17.967 34.8369 15.6803L30.4969 11.3403L31.1502 10.687C32.9702 8.86699 35.9336 8.86699 37.7536 10.687L47.6469 20.5803C49.4669 22.4003 49.4669 25.3637 47.6469 27.1837L28.5135 46.317ZM50.9369 30.497C54.5769 26.857 54.5769 20.9537 50.9369 17.2903L41.0435 7.39699C37.4035 3.75699 31.5002 3.75699 27.8369 7.39699L27.1835 8.05033L26.5302 7.39699C22.8902 3.75699 16.9869 3.75699 13.3235 7.39699L5.06355 15.657C1.75021 18.9703 1.44688 24.127 4.13021 27.767L7.51355 24.3837C6.60355 22.6337 6.90688 20.417 8.37688 18.947L16.6369 10.687C18.4569 8.86699 21.4202 8.86699 23.2402 10.687L31.5469 18.9937C31.9669 19.4137 32.0369 20.1603 31.5469 20.6503C31.0569 21.1403 30.3102 21.0703 29.8902 20.6503L22.2135 12.997L8.68022 26.507C6.39355 28.7703 6.39355 32.4803 8.68022 34.767C9.59022 35.677 10.7569 36.237 11.9935 36.4003C12.1569 37.6137 12.6935 38.7803 13.6269 39.7137C14.5602 40.647 15.7269 41.1837 16.9402 41.347C17.1035 42.5603 17.6402 43.727 18.5735 44.6603C19.5069 45.5937 20.6735 46.1303 21.8869 46.2937C22.0502 47.5537 22.6102 48.697 23.5202 49.607C24.6169 50.7037 26.0869 51.3103 27.6502 51.3103C29.2136 51.3103 30.6835 50.7037 31.7802 49.607L50.9369 30.497Z" fill="#FEC8BE"/>
</svg>
