<svg width="56" height="56" viewBox="0 0 56 56" fill="none" xmlns="http://www.w3.org/2000/svg">
<path d="M44.333 20.9997L47.2497 14.583L53.6663 11.6663L47.2497 8.74967L44.333 2.33301L41.4163 8.74967L34.9997 11.6663L41.4163 14.583L44.333 20.9997Z" fill="#FEC8BE"/>
<path d="M44.333 34.9997L41.4163 41.4163L34.9997 44.333L41.4163 47.2497L44.333 53.6663L47.2497 47.2497L53.6663 44.333L47.2497 41.4163L44.333 34.9997Z" fill="#FEC8BE"/>
<path d="M26.833 22.1663L20.9997 9.33301L15.1663 22.1663L2.33301 27.9997L15.1663 33.833L20.9997 46.6663L26.833 33.833L39.6663 27.9997L26.833 22.1663ZM23.3097 30.3097L20.9997 35.3963L18.6897 30.3097L13.603 27.9997L18.6897 25.6897L20.9997 20.603L23.3097 25.6897L28.3963 27.9997L23.3097 30.3097Z" fill="#FEC8BE"/>
</svg>
