<svg width="56" height="56" viewBox="0 0 56 56" fill="none" xmlns="http://www.w3.org/2000/svg">
<path d="M28.0003 4.66699C15.1203 4.66699 4.66699 15.1203 4.66699 28.0003C4.66699 40.8803 15.1203 51.3337 28.0003 51.3337C40.8803 51.3337 51.3337 40.8803 51.3337 28.0003C51.3337 15.1203 40.8803 4.66699 28.0003 4.66699ZM28.0003 46.667C17.7103 46.667 9.33366 38.2903 9.33366 28.0003C9.33366 17.7103 17.7103 9.33366 28.0003 9.33366C38.2903 9.33366 46.667 17.7103 46.667 28.0003C46.667 38.2903 38.2903 46.667 28.0003 46.667ZM15.167 40.8337L32.6903 32.6903L40.8337 15.167L23.3103 23.3103L15.167 40.8337ZM28.0003 25.4337C29.4237 25.4337 30.567 26.577 30.567 28.0003C30.567 29.4237 29.4237 30.567 28.0003 30.567C26.577 30.567 25.4337 29.4237 25.4337 28.0003C25.4337 26.577 26.577 25.4337 28.0003 25.4337Z" fill="#FEC8BE"/>
</svg>
