<svg width="56" height="56" viewBox="0 0 56 56" fill="none" xmlns="http://www.w3.org/2000/svg">
<path d="M28 18.6663C30.5773 18.6663 32.6667 16.577 32.6667 13.9997C32.6667 11.4223 30.5773 9.33301 28 9.33301C25.4227 9.33301 23.3333 11.4223 23.3333 13.9997C23.3333 16.577 25.4227 18.6663 28 18.6663Z" fill="#FEC8BE"/>
<path d="M49 37.333V32.6663C43.7733 32.6663 39.2933 30.4263 35.9333 26.413L32.8067 22.6797C31.92 21.6063 30.6133 20.9997 29.2367 20.9997H26.7867C25.41 20.9997 24.1033 21.6063 23.2167 22.6797L20.09 26.413C16.7067 30.4263 12.2267 32.6663 7 32.6663V37.333C13.4633 37.333 19.11 34.603 23.3333 29.7497V34.9997L14.28 38.6163C12.7167 39.2463 11.6667 40.7863 11.6667 42.4897C11.6667 44.7997 13.5333 46.6663 15.8433 46.6663H21V45.4997C21 42.2797 23.6133 39.6663 26.8333 39.6663H33.8333C34.4867 39.6663 35 40.1797 35 40.833C35 41.4863 34.4867 41.9997 33.8333 41.9997H26.8333C24.8967 41.9997 23.3333 43.563 23.3333 45.4997V46.6663H40.1567C42.4667 46.6663 44.3333 44.7997 44.3333 42.4897C44.3333 40.7863 43.2833 39.2463 41.72 38.6163L32.6667 34.9997V29.7497C36.89 34.603 42.5367 37.333 49 37.333Z" fill="#FEC8BE"/>
</svg>
