<svg width="50" height="50" viewBox="0 0 50 50" fill="none" xmlns="http://www.w3.org/2000/svg">
<circle cx="25" cy="25" r="25" fill="#78D1B7"/>
<path d="M18.4489 37V32.7386L26.5881 26.0057C27.1278 25.5582 27.5895 25.1392 27.973 24.7486C28.3636 24.3509 28.6619 23.9425 28.8679 23.5234C29.081 23.1044 29.1875 22.6392 29.1875 22.1278C29.1875 21.5668 29.0668 21.0874 28.8253 20.6896C28.5909 20.2919 28.2642 19.9865 27.8452 19.7734C27.4261 19.5533 26.9432 19.4432 26.3963 19.4432C25.8494 19.4432 25.3665 19.5533 24.9474 19.7734C24.5355 19.9936 24.2159 20.3168 23.9886 20.7429C23.7614 21.169 23.6477 21.6875 23.6477 22.2983H18.0227C18.0227 20.7642 18.3672 19.4432 19.0561 18.3352C19.745 17.2273 20.718 16.375 21.9751 15.7784C23.2322 15.1818 24.706 14.8835 26.3963 14.8835C28.1435 14.8835 29.6563 15.1641 30.9347 15.7251C32.2202 16.2791 33.2109 17.0604 33.907 18.0689C34.6101 19.0774 34.9616 20.2599 34.9616 21.6165C34.9616 22.4545 34.7876 23.2891 34.4396 24.12C34.0916 24.9439 33.4666 25.8565 32.5646 26.858C31.6626 27.8594 30.3807 29.0526 28.7188 30.4375L26.6733 32.142V32.2699H35.196V37H18.4489Z" fill="#034F68"/>
</svg>
