<svg width="50" height="50" viewBox="0 0 50 50" fill="none" xmlns="http://www.w3.org/2000/svg">
<circle cx="25" cy="25" r="25" fill="#78D1B7"/>
<path d="M27.1847 37.2983C25.5085 37.2983 24.0206 37.0036 22.7209 36.4141C21.4283 35.8175 20.4091 34.9972 19.6634 33.9531C18.9247 32.9091 18.5483 31.7088 18.5341 30.3523H24.2869C24.3082 31.1051 24.5994 31.7053 25.1605 32.1527C25.7287 32.6001 26.4034 32.8239 27.1847 32.8239C27.7884 32.8239 28.321 32.696 28.7827 32.4403C29.2443 32.1776 29.6065 31.8082 29.8693 31.3324C30.1321 30.8565 30.2599 30.3026 30.2528 29.6705C30.2599 29.0312 30.1321 28.4773 29.8693 28.0085C29.6065 27.5327 29.2443 27.1669 28.7827 26.9112C28.321 26.6484 27.7884 26.517 27.1847 26.517C26.5597 26.517 25.9808 26.6697 25.4482 26.9751C24.9226 27.2734 24.5355 27.6889 24.2869 28.2216L19.0881 27.1989L19.9403 15.1818H34.5994V19.9119H24.7983L24.3722 24.7273H24.5C24.8409 24.0668 25.4304 23.5199 26.2685 23.0866C27.1065 22.6463 28.0795 22.4261 29.1875 22.4261C30.4872 22.4261 31.6449 22.728 32.6605 23.3317C33.6832 23.9354 34.4893 24.7699 35.0788 25.8352C35.6754 26.8935 35.9702 28.1151 35.9631 29.5C35.9702 31.0199 35.608 32.3693 34.8764 33.5483C34.152 34.7202 33.1328 35.6399 31.8189 36.3075C30.505 36.968 28.9602 37.2983 27.1847 37.2983Z" fill="#034F68"/>
</svg>
