<svg width="50" height="50" viewBox="0 0 50 50" fill="none" xmlns="http://www.w3.org/2000/svg">
<circle cx="25" cy="25" r="25" fill="#78D1B7"/>
<path d="M26.9716 37.2983C25.2528 37.2983 23.7259 37.0036 22.3906 36.4141C21.0625 35.8175 20.0185 34.9972 19.2585 33.9531C18.4986 32.9091 18.1151 31.7088 18.108 30.3523H24.0739C24.081 30.7713 24.2088 31.1477 24.4574 31.4815C24.7131 31.8082 25.0611 32.0639 25.5014 32.2486C25.9418 32.4332 26.446 32.5256 27.0142 32.5256C27.5611 32.5256 28.044 32.4297 28.4631 32.2379C28.8821 32.0391 29.2088 31.7656 29.4432 31.4176C29.6776 31.0696 29.7912 30.6719 29.7841 30.2244C29.7912 29.7841 29.6563 29.3935 29.3793 29.0526C29.1094 28.7116 28.7294 28.4453 28.2393 28.2536C27.7493 28.0618 27.1847 27.9659 26.5455 27.9659H24.3295V23.875H26.5455C27.1349 23.875 27.6534 23.7791 28.1009 23.5874C28.5554 23.3956 28.907 23.1293 29.1555 22.7884C29.4112 22.4474 29.5355 22.0568 29.5284 21.6165C29.5355 21.1903 29.4325 20.8139 29.2195 20.4872C29.0064 20.1605 28.7081 19.9048 28.3246 19.7202C27.9482 19.5355 27.5114 19.4432 27.0142 19.4432C26.4744 19.4432 25.9915 19.5391 25.5653 19.7308C25.1463 19.9226 24.8161 20.1889 24.5746 20.5298C24.3331 20.8707 24.2088 21.2614 24.2017 21.7017H18.5341C18.5412 20.3665 18.907 19.1875 19.6314 18.1648C20.3629 17.142 21.3643 16.3395 22.6357 15.7571C23.907 15.1747 25.3665 14.8835 27.0142 14.8835C28.6264 14.8835 30.0504 15.157 31.2862 15.7038C32.5291 16.2507 33.4986 17.0036 34.1946 17.9624C34.8977 18.9141 35.2457 20.0043 35.2386 21.233C35.2528 22.4545 34.8338 23.456 33.9815 24.2372C33.1364 25.0185 32.0639 25.4801 30.7642 25.6222V25.7926C32.5256 25.9844 33.8501 26.5241 34.7379 27.4119C35.6257 28.2926 36.0625 29.4006 36.0483 30.7358C36.0554 32.0142 35.6719 33.147 34.8977 34.1342C34.1307 35.1214 33.0618 35.8956 31.6911 36.4567C30.3274 37.0178 28.7543 37.2983 26.9716 37.2983Z" fill="#034F68"/>
</svg>
