<svg width="56" height="56" viewBox="0 0 56 56" fill="none" xmlns="http://www.w3.org/2000/svg">
<path d="M46.667 9.33337H9.33366C6.76699 9.33337 4.66699 11.4334 4.66699 14V42C4.66699 44.5667 6.76699 46.6667 9.33366 46.6667H46.667C49.2337 46.6667 51.3337 44.5667 51.3337 42V14C51.3337 11.4334 49.2337 9.33337 46.667 9.33337ZM46.667 42H9.33366V14H46.667V42Z" fill="#FEC8BE"/>
<path d="M19.3437 36.6567C16.9637 34.2767 15.7503 31.15 15.7503 28C15.7503 24.85 16.9637 21.7233 19.3203 19.32L16.4503 16.45C13.2537 19.6233 11.667 23.8233 11.667 28C11.667 32.1767 13.2537 36.3767 16.4737 39.5267L19.3437 36.6567Z" fill="#FEC8BE"/>
<path d="M28.0003 36.1667C32.5037 36.1667 36.167 32.5034 36.167 28C36.167 23.4967 32.5037 19.8334 28.0003 19.8334C23.497 19.8334 19.8337 23.4967 19.8337 28C19.8337 32.5034 23.497 36.1667 28.0003 36.1667ZM28.0003 24.5C29.937 24.5 31.5003 26.0634 31.5003 28C31.5003 29.9367 29.937 31.5 28.0003 31.5C26.0637 31.5 24.5003 29.9367 24.5003 28C24.5003 26.0634 26.0637 24.5 28.0003 24.5Z" fill="#FEC8BE"/>
<path d="M36.6803 36.68L39.5503 39.55C42.747 36.3767 44.3337 32.1767 44.3337 28C44.3337 23.8234 42.747 19.6234 39.527 16.4734L36.657 19.3434C39.037 21.7234 40.2503 24.85 40.2503 28C40.2503 31.15 39.037 34.2767 36.6803 36.68Z" fill="#FEC8BE"/>
</svg>
