<svg width="56" height="56" viewBox="0 0 56 56" fill="none" xmlns="http://www.w3.org/2000/svg">
<path d="M46.4103 25.083C46.5737 26.0397 46.667 26.9963 46.667 27.9997C46.667 38.2897 38.2903 46.6663 28.0003 46.6663C17.7103 46.6663 9.33366 38.2897 9.33366 27.9997C9.33366 27.883 9.35699 27.7663 9.33366 27.673C15.4003 25.3863 20.277 20.6963 22.727 14.723C30.6137 24.383 41.3237 23.4263 43.7037 23.1463L41.627 18.643C41.3237 18.6663 30.847 19.5297 24.8737 9.63634C27.2303 9.26301 28.8637 9.28634 30.917 9.61301C36.797 6.92967 35.4203 7.53634 37.357 6.67301C34.487 5.36634 31.337 4.66634 28.0003 4.66634C15.1203 4.66634 4.66699 15.1197 4.66699 27.9997C4.66699 40.8797 15.1203 51.333 28.0003 51.333C40.8803 51.333 51.3337 40.8797 51.3337 27.9997C51.3337 24.663 50.6337 21.513 49.3737 18.643L46.4103 25.083ZM18.8537 11.7363C17.3837 16.1463 14.3037 19.833 10.3137 22.0963C11.7837 17.6863 14.8637 13.9997 18.8537 11.7363Z" fill="#FEC8BE"/>
<path d="M35.0003 33.2497C36.6112 33.2497 37.917 31.9438 37.917 30.333C37.917 28.7222 36.6112 27.4163 35.0003 27.4163C33.3895 27.4163 32.0837 28.7222 32.0837 30.333C32.0837 31.9438 33.3895 33.2497 35.0003 33.2497Z" fill="#FEC8BE"/>
<path d="M21.0003 33.2497C22.6112 33.2497 23.917 31.9438 23.917 30.333C23.917 28.7222 22.6112 27.4163 21.0003 27.4163C19.3895 27.4163 18.0837 28.7222 18.0837 30.333C18.0837 31.9438 19.3895 33.2497 21.0003 33.2497Z" fill="#FEC8BE"/>
<path d="M53.667 10.4997L48.067 7.93301L45.5003 2.33301L42.9337 7.93301L37.3337 10.4997L42.9337 13.0663L45.5003 18.6663L48.067 13.0663L53.667 10.4997Z" fill="#FEC8BE"/>
</svg>
