<svg width="56" height="56" viewBox="0 0 56 56" fill="none" xmlns="http://www.w3.org/2000/svg">
<path d="M16.3803 30.3337C11.2237 30.3337 7.04699 34.5103 7.04699 39.667C7.04699 44.8237 11.2237 49.0003 16.3803 49.0003C21.537 49.0003 25.7137 44.8237 25.7137 39.667C25.7137 34.5103 21.537 30.3337 16.3803 30.3337ZM16.3803 44.3337C13.8137 44.3337 11.7137 42.2337 11.7137 39.667C11.7137 37.1003 13.8137 35.0003 16.3803 35.0003C18.947 35.0003 21.047 37.1003 21.047 39.667C21.047 42.2337 18.947 44.3337 16.3803 44.3337ZM30.3337 30.3337V49.0003H49.0003V30.3337H30.3337ZM44.3337 44.3337H35.0003V35.0003H44.3337V44.3337ZM16.3337 4.66699L4.66699 25.667H28.0003L16.3337 4.66699ZM16.3337 14.2803L20.067 21.0003H12.6003L16.3337 14.2803ZM44.917 5.83366C42.4437 5.83366 40.6937 7.14033 39.667 8.56366C38.6403 7.14033 36.8903 5.83366 34.417 5.83366C30.777 5.83366 28.0003 8.82033 28.0003 12.2503C28.0003 16.917 33.647 20.2303 39.667 25.667C45.687 20.2303 51.3337 16.917 51.3337 12.2503C51.3337 8.82033 48.557 5.83366 44.917 5.83366ZM39.667 19.4837C36.2837 16.637 32.667 13.8837 32.667 12.2503C32.667 11.247 33.4837 10.5003 34.417 10.5003C35.1403 10.5003 35.6303 10.897 36.1203 11.3637L39.667 14.7003L43.2137 11.3637C43.7037 10.897 44.1937 10.5003 44.917 10.5003C45.8503 10.5003 46.667 11.247 46.667 12.2503C46.667 13.8837 43.0503 16.637 39.667 19.4837Z" fill="#FEC8BE"/>
</svg>
