<svg width="85" height="85" viewBox="0 0 85 85" fill="none" xmlns="http://www.w3.org/2000/svg">
<path d="M33.6458 14.1667C49.2646 14.1667 61.9792 26.8813 61.9792 42.5C61.9792 58.1188 49.2646 70.8334 33.6458 70.8334C32.4417 70.8334 31.2375 70.7625 30.0687 70.5855C36.8333 62.9355 40.7292 52.948 40.7292 42.5C40.7292 32.0521 36.8333 22.0646 30.0687 14.4146C31.2375 14.2375 32.4417 14.1667 33.6458 14.1667ZM33.6458 7.08337C27.2 7.08337 21.1438 8.85421 15.9375 11.8646C26.5271 17.9917 33.6458 29.3959 33.6458 42.5C33.6458 55.6042 26.5271 67.0084 15.9375 73.1355C21.1438 76.1459 27.2 77.9167 33.6458 77.9167C53.1958 77.9167 69.0625 62.05 69.0625 42.5C69.0625 22.95 53.1958 7.08337 33.6458 7.08337Z" fill="black" fill-opacity="0.54"/>
</svg>
